<svg xmlns="http://www.w3.org/2000/svg" viewBox="0 0 32 32" fill="none">
  <rect width="32" height="32" rx="8" fill="#ffffff" />
  <!-- Three pins like the Famio mark: magenta top, mint left, blue right -->
  <path
    fill="#C012B1"
    d="M16 5.5c-2.1 0-3.8 1.7-3.8 3.9 0 2.8 3.8 7.6 3.8 7.6s3.8-4.8 3.8-7.6c0-2.2-1.7-3.9-3.8-3.9Zm0 5.2a1.4 1.4 0 1 1 0-2.8 1.4 1.4 0 0 1 0 2.8Z"
  />
  <path
    fill="#50D291"
    d="M8.5 14.2c-1.65 0-3 1.35-3 3.1 0 2.2 3 6 3 6s3-3.8 3-6c0-1.75-1.35-3.1-3-3.1Zm0 4.1a1.1 1.1 0 1 1 0-2.2 1.1 1.1 0 0 1 0 2.2Z"
  />
  <path
    fill="#4182F1"
    d="M23.5 14.2c-1.65 0-3 1.35-3 3.1 0 2.2 3 6 3 6s3-3.8 3-6c0-1.75-1.35-3.1-3-3.1Zm0 4.1a1.1 1.1 0 1 1 0-2.2 1.1 1.1 0 0 1 0 2.2Z"
  />
</svg>
